Coordinates
version=1
nRows=15
nColumns=38
inDegrees=yes

Units are S.I. units (second, meters, Newtons, ...)
Angles are in degrees.

endheader
time	pelvis_tilt	pelvis_list	pelvis_rotation	pelvis_tx	pelvis_ty	pelvis_tz	hip_flexion_r	hip_adduction_r	hip_rotation_r	knee_angle_r	ankle_angle_r	subtalar_angle_r	mtp_angle_r	hip_flexion_l	hip_adduction_l	hip_rotation_l	knee_angle_l	ankle_angle_l	subtalar_angle_l	mtp_angle_l	lumbar_extension	lumbar_bending	lumbar_rotation	arm_flex_r	arm_add_r	arm_rot_r	elbow_flex_r	pro_sup_r	wrist_flex_r	wrist_dev_r	arm_flex_l	arm_add_l	arm_rot_l	elbow_flex_l	pro_sup_l	wrist_flex_l	wrist_dev_l
      1.98000000	     -0.92846189	     -0.07031129	      6.20814803	      0.59244772	      0.93816130	     -0.24788997	     26.68911152	     -0.80637757	    -11.18178290	    -16.95519721	     -0.99151062	      3.36422132	      0.00000000	     -9.59858912	      3.89886515	     10.42188943	    -23.36177271	     14.85336189	     -2.41423117	      0.00000000	    -10.16986129	      0.44548958	    -15.44158902	     -8.45692077	     -5.51513443	     21.43159782	     38.74235361	     42.73797433	      0.00000000	      0.00000000	     10.85939475	     -6.65002870	     29.05308423	     53.24162008	     42.73797433	      0.00000000	      0.00000000
      1.99000000	     -1.48480973	     -1.04808564	      6.03892599	      0.60483515	      0.93731748	     -0.24703054	     26.97691323	      0.34458380	    -10.80497619	    -17.41469213	     -2.36849397	      2.81791521	      0.00000000	     -8.66891209	      2.91034860	      9.71356615	    -25.20810066	     14.17037767	     -2.05041005	      0.00000000	     -9.28440995	      1.62872653	    -15.06593403	     -8.12691420	     -5.67231429	     21.36779983	     38.10420891	     42.84787227	      0.00000000	      0.00000000	     10.54160402	     -6.02723225	     29.27818801	     52.15298578	     42.84787227	      0.00000000	      0.00000000
      2.00000000	     -1.69202434	     -1.80061735	      5.80827150	      0.61771560	      0.93746599	     -0.24638959	     27.02369577	      1.21998168	    -10.31891983	    -18.54579670	     -2.80263156	      3.02964412	      0.00000000	     -8.38648992	      2.19991000	      9.51619471	    -26.57214186	     12.75500640	     -2.21385924	      0.00000000	     -8.81249520	      2.60968752	    -14.74322309	     -7.98459317	     -5.88984028	     21.34062893	     38.07525119	     42.86104913	      0.00000000	      0.00000000	     10.10847486	     -5.66861430	     29.42874471	     51.98032209	     42.86104913	      0.00000000	      0.00000000
      2.01000000	     -1.93019193	     -2.66197872	      5.58815421	      0.63057389	      0.93769719	     -0.24583089	     27.04296691	      2.46043929	     -8.76819932	    -19.25879967	     -2.89633573	      1.10885985	      0.00000000	     -7.76217439	      1.32860347	      8.96371210	    -28.43037057	     11.31822594	     -1.71995447	      0.00000000	     -8.29435151	      3.72594209	    -14.38182757	     -7.85391220	     -6.17488412	     21.41064379	     38.16441492	     42.91869927	      0.00000000	      0.00000000	      9.82976271	     -5.14527796	     29.56124754	     51.10359121	     42.91869927	      0.00000000	      0.00000000
      2.02000000	     -1.99686727	     -3.35735045	      5.33613441	      0.64353666	      0.93831299	     -0.24543032	     26.88997268	      3.40971515	     -8.10106064	    -20.07425171	     -2.56469301	     -0.55446682	      0.00000000	     -7.17642154	      0.58390542	      8.14505037	    -30.47459505	      9.62751950	     -1.01149880	      0.00000000	     -8.01597709	      4.70239224	    -14.02650000	     -7.76510970	     -6.49719999	     21.46748884	     38.46910835	     42.99457036	      0.00000000	      0.00000000	      9.54732935	     -4.65541756	     29.78080493	     50.26246592	     42.99457036	      0.00000000	      0.00000000
      2.03000000	     -1.94716378	     -3.87524851	      5.05944122	      0.65652965	      0.93932751	     -0.24501686	     26.54106875	      4.06148431	     -8.03843053	    -21.00204937	     -2.09339914	     -0.96792031	      0.00000000	     -6.68831193	      0.13114920	      7.71775859	    -32.50148713	      6.88270168	     -1.16905076	      0.00000000	     -7.91244159	      5.48316524	    -13.67752305	     -7.52442751	     -6.69607853	     21.42634726	     38.56884948	     43.00472652	      0.00000000	      0.00000000	      9.11327278	     -4.35316138	     29.90820366	     50.09775836	     43.00472652	      0.00000000	      0.00000000
      2.04000000	     -2.00897869	     -4.47698609	      4.69337560	      0.66913695	      0.94044839	     -0.24425745	     25.99984702	      5.17505339	     -6.68317914	    -21.20545758	     -2.07821824	     -2.38147018	      0.00000000	     -5.68876236	     -0.52299936	      6.80677782	    -35.01738288	      3.99578330	     -0.67335438	      0.00000000	     -7.72092471	      6.30684137	    -13.17536369	     -7.40432714	     -7.00570597	     21.44265776	     39.17679528	     43.06656774	      0.00000000	      0.00000000	      8.79285777	     -3.91749137	     30.00719200	     49.21349068	     43.06656774	      0.00000000	      0.00000000
      2.05000000	     -1.99782035	     -4.96786033	      4.37146736	      0.68163963	      0.94195920	     -0.24347192	     25.32119542	      6.03848499	     -5.99390209	    -21.35966756	     -1.55508903	     -2.53723166	      0.00000000	     -4.69390171	     -1.11456151	      5.95514784	    -37.42540249	      0.41988602	     -0.54941412	      0.00000000	     -7.65378702	      6.98365300	    -12.73688066	     -7.10058718	     -7.14251692	     21.40376703	     39.34771836	     43.07786679	      0.00000000	      0.00000000	      8.36219305	     -3.68069395	     30.12082322	     49.04628851	     43.07786679	      0.00000000	      0.00000000
      2.06000000	     -2.01031615	     -5.48875723	      4.01473775	      0.69385844	      0.94347817	     -0.24227056	     24.47085548	      6.97440152	     -5.18353303	    -21.07957795	     -1.42384613	     -3.56183314	      0.00000000	     -3.53204671	     -1.88809524	      4.93563679	    -39.89482730	     -3.13964625	     -0.06358861	      0.00000000	     -7.58926330	      7.62011156	    -12.13591501	     -7.14003200	     -7.44821915	     21.27967140	     40.57719296	     43.23554208	      0.00000000	      0.00000000	      8.27582657	     -3.29856682	     30.45765294	     47.76275792	     43.23554208	      0.00000000	      0.00000000
      2.07000000	     -1.90440294	     -5.77788269	      3.70776875	      0.70590984	      0.94522747	     -0.24098963	     23.51303497	      7.51347156	     -5.10261271	    -20.94741933	     -0.74643814	     -3.42911644	      0.00000000	     -2.47129753	     -2.30225204	      4.61581488	    -42.27339280	     -6.53305831	      0.17782051	      0.00000000	     -7.70573978	      7.97034629	    -11.62305034	     -6.78974315	     -7.42405192	     21.25119160	     40.72102842	     43.24428117	      0.00000000	      0.00000000	      7.94011948	     -3.21524720	     30.53840720	     47.66702092	     43.24428117	      0.00000000	      0.00000000
      2.08000000	     -1.81970106	     -5.89158468	      3.24875494	      0.71794879	      0.94701716	     -0.23919504	     22.52478923	      7.98684705	     -4.60496100	    -20.75774673	     -0.12939907	     -3.23834080	      0.00000000	     -1.39196418	     -2.37934325	      4.66812016	    -44.61147580	     -8.26223043	      0.48291042	      0.00000000	     -7.82746693	      8.04473711	    -10.87691844	     -6.44467436	     -7.38047231	     21.25201368	     40.92395240	     43.25527083	      0.00000000	      0.00000000	      7.51375668	     -3.20143393	     30.61209043	     47.54264040	     43.25527083	      0.00000000	      0.00000000
      2.09000000	     -1.82932277	     -6.01501968	      3.06247573	      0.72924612	      0.94832610	     -0.23782260	     21.70701456	      8.37016408	     -4.20626319	    -20.60143747	      0.45055206	     -3.34308561	      0.00000000	      0.16758764	     -2.63890307	      4.57826627	    -47.34673933	     -8.18498192	      1.29754907	      0.00000000	     -7.88977824	      8.13824876	    -10.37059800	     -6.07522037	     -7.35573440	     21.30583303	     41.32198146	     43.27774653	      0.00000000	      0.00000000	      7.40401478	     -3.18601110	     30.65180272	     47.23843702	     43.27774653	      0.00000000	      0.00000000
      2.10000000	     -1.73805033	     -6.03751569	      3.08444870	      0.74022044	      0.94947755	     -0.23687448	     20.84473060	      8.55297884	     -4.04168515	    -20.56223594	      1.34219648	     -3.38817570	      0.00000000	      1.60752332	     -2.65802321	      4.74424133	    -49.94924906	     -6.90845614	      0.75922100	      0.00000000	     -8.09788789	      8.12930919	     -9.98134758	     -5.64585789	     -7.24797190	     21.33552685	     41.57955150	     43.28516228	      0.00000000	      0.00000000	      7.34521231	     -3.21198616	     30.66581077	     47.11625148	     43.28516228	      0.00000000	      0.00000000
      2.11000000	     -1.74650043	     -6.10545064	      3.24415899	      0.75076519	      0.95023843	     -0.23627133	     20.16451342	      8.70861253	     -4.06280795	    -20.56820005	      1.99417356	     -3.44984661	      0.00000000	      3.29048046	     -2.57025751	      5.10885682	    -52.46524793	     -6.13800343	     -0.59566748	      0.00000000	     -8.27783971	      8.20022565	     -9.65730316	     -5.14800674	     -7.26509667	     21.40640830	     41.97847567	     43.29594637	      0.00000000	      0.00000000	      7.25864636	     -3.25005689	     30.68608929	     46.94530964	     43.29594637	      0.00000000	      0.00000000
      2.12000000	     -1.63693348	     -6.06612892	      3.41493088	      0.76113363	      0.95109801	     -0.23570027	     19.31955298	      8.78355108	     -4.08144540	    -20.50085576	      2.85111786	     -3.53112156	      0.00000000	      5.09439223	     -2.61588299	      5.07431023	    -54.98217322	     -6.02756850	     -1.89732111	      0.00000000	     -8.53347209	      8.10493886	     -9.37664478	     -4.66340857	     -7.18852071	     21.47485695	     42.33387201	     43.30307847	      0.00000000	      0.00000000	      7.22520731	     -3.31281026	     30.69152210	     46.83825164	     43.30307847	      0.00000000	      0.00000000
